<svg width="24" height="24" viewBox="0 0 24 24" fill="none" xmlns="http://www.w3.org/2000/svg">
<g id="Cross">
<path id="Vector" d="M13.41 11.9951L19.7061 5.70894C19.8943 5.52076 20 5.26552 20 4.99938C20 4.73324 19.8943 4.47801 19.7061 4.28982C19.5179 4.10163 19.2627 3.99591 18.9965 3.99591C18.7304 3.99591 18.4752 4.10163 18.287 4.28982L12.0009 10.5859L5.71474 4.28982C5.52655 4.10163 5.27131 3.99591 5.00518 3.99591C4.73904 3.99591 4.4838 4.10163 4.29562 4.28982C4.10743 4.47801 4.00171 4.73324 4.00171 4.99938C4.00171 5.26552 4.10743 5.52076 4.29562 5.70894L10.5917 11.9951L4.29562 18.2812C4.20195 18.3741 4.1276 18.4846 4.07686 18.6064C4.02612 18.7282 4 18.8588 4 18.9907C4 19.1227 4.02612 19.2533 4.07686 19.3751C4.1276 19.4969 4.20195 19.6074 4.29562 19.7003C4.38852 19.794 4.49905 19.8683 4.62084 19.9191C4.74262 19.9698 4.87325 19.9959 5.00518 19.9959C5.13711 19.9959 5.26773 19.9698 5.38952 19.9191C5.5113 19.8683 5.62183 19.794 5.71474 19.7003L12.0009 13.4042L18.287 19.7003C18.3799 19.794 18.4904 19.8683 18.6122 19.9191C18.734 19.9698 18.8646 19.9959 18.9965 19.9959C19.1285 19.9959 19.2591 19.9698 19.3809 19.9191C19.5027 19.8683 19.6132 19.794 19.7061 19.7003C19.7998 19.6074 19.8741 19.4969 19.9248 19.3751C19.9756 19.2533 20.0017 19.1227 20.0017 18.9907C20.0017 18.8588 19.9756 18.7282 19.9248 18.6064C19.8741 18.4846 19.7998 18.3741 19.7061 18.2812L13.41 11.9951Z" fill="#0C0C0B"/>
</g>
</svg>
