<svg width="24" height="25" viewBox="0 0 24 25" fill="none" xmlns="http://www.w3.org/2000/svg">
<g id="Cross">
<path id="Vector" d="M13.41 12.4952L19.7061 6.20913C19.8943 6.02094 20 5.7657 20 5.49957C20 5.23343 19.8943 4.97819 19.7061 4.79C19.5179 4.60182 19.2627 4.49609 18.9965 4.49609C18.7304 4.49609 18.4752 4.60182 18.287 4.79L12.0009 11.0861L5.71474 4.79C5.52655 4.60182 5.27131 4.49609 5.00518 4.49609C4.73904 4.49609 4.4838 4.60182 4.29562 4.79C4.10743 4.97819 4.00171 5.23343 4.00171 5.49957C4.00171 5.7657 4.10743 6.02094 4.29562 6.20913L10.5917 12.4952L4.29562 18.7814C4.20195 18.8743 4.1276 18.9848 4.07686 19.1066C4.02612 19.2284 4 19.359 4 19.4909C4 19.6228 4.02612 19.7535 4.07686 19.8753C4.1276 19.997 4.20195 20.1076 4.29562 20.2005C4.38852 20.2941 4.49905 20.3685 4.62084 20.4192C4.74262 20.47 4.87325 20.4961 5.00518 20.4961C5.13711 20.4961 5.26773 20.47 5.38952 20.4192C5.5113 20.3685 5.62183 20.2941 5.71474 20.2005L12.0009 13.9044L18.287 20.2005C18.3799 20.2941 18.4904 20.3685 18.6122 20.4192C18.734 20.47 18.8646 20.4961 18.9965 20.4961C19.1285 20.4961 19.2591 20.47 19.3809 20.4192C19.5027 20.3685 19.6132 20.2941 19.7061 20.2005C19.7998 20.1076 19.8741 19.997 19.9248 19.8753C19.9756 19.7535 20.0017 19.6228 20.0017 19.4909C20.0017 19.359 19.9756 19.2284 19.9248 19.1066C19.8741 18.9848 19.7998 18.8743 19.7061 18.7814L13.41 12.4952Z" fill="#0C0C0B"/>
</g>
</svg>
