<svg width="12" height="8" viewBox="0 0 12 8" fill="none" xmlns="http://www.w3.org/2000/svg">
<path id="Vector" d="M6 7.57198C5.84969 7.57216 5.70082 7.54262 5.56196 7.48507C5.4231 7.42753 5.29698 7.3431 5.19085 7.23665L0.335171 2.38161C0.120564 2.167 -1.07635e-06 1.87593 0 1.57243C1.07636e-06 1.26892 0.120568 0.977853 0.335177 0.763245C0.549786 0.548637 0.840858 0.428072 1.14436 0.428073C1.44786 0.428074 1.73893 0.548641 1.95354 0.76325L6 4.80911L10.0465 0.763217C10.2611 0.548607 10.5521 0.428041 10.8556 0.42804C11.1591 0.428038 11.4502 0.548603 11.6648 0.763211C11.8794 0.977819 12 1.26889 12 1.57239C12 1.87589 11.8794 2.16697 11.6648 2.38157L6.80914 7.23669C6.70301 7.34313 6.5769 7.42755 6.43804 7.48509C6.29917 7.54263 6.15031 7.57216 6 7.57198Z" fill="#5B5C5D"/>
</svg>
