<svg width="24" height="24" viewBox="0 0 24 24" fill="none" xmlns="http://www.w3.org/2000/svg">
<g id="Icon">
<path id="Vector" d="M3.71023 14.29C3.61513 14.199 3.50298 14.1276 3.38023 14.08C3.13677 13.98 2.86369 13.98 2.62023 14.08C2.49748 14.1276 2.38534 14.199 2.29023 14.29C2.19919 14.3851 2.12783 14.4972 2.08023 14.62C2.00365 14.8021 1.98273 15.0028 2.0201 15.1968C2.05748 15.3908 2.15147 15.5694 2.29023 15.71C2.38743 15.7983 2.49905 15.8694 2.62023 15.92C2.73993 15.9729 2.86936 16.0002 3.00023 16.0002C3.1311 16.0002 3.26053 15.9729 3.38023 15.92C3.50142 15.8694 3.61303 15.7983 3.71023 15.71C3.84899 15.5694 3.94299 15.3908 3.98036 15.1968C4.01773 15.0028 3.99681 14.8021 3.92023 14.62C3.87264 14.4972 3.80127 14.3851 3.71023 14.29ZM7.00023 10H21.0002C21.2654 10 21.5198 9.89464 21.7073 9.70711C21.8949 9.51957 22.0002 9.26522 22.0002 9C22.0002 8.73478 21.8949 8.48043 21.7073 8.29289C21.5198 8.10536 21.2654 8 21.0002 8H7.00023C6.73502 8 6.48066 8.10536 6.29313 8.29289C6.10559 8.48043 6.00023 8.73478 6.00023 9C6.00023 9.26522 6.10559 9.51957 6.29313 9.70711C6.48066 9.89464 6.73502 10 7.00023 10ZM3.71023 8.29C3.61513 8.19896 3.50298 8.12759 3.38023 8.08C3.19812 8.00342 2.99741 7.9825 2.80342 8.01987C2.60943 8.05725 2.43086 8.15124 2.29023 8.29C2.2019 8.3872 2.13087 8.49882 2.08023 8.62C2.02733 8.7397 2 8.86913 2 9C2 9.13087 2.02733 9.2603 2.08023 9.38C2.13087 9.50119 2.2019 9.6128 2.29023 9.71C2.38743 9.79833 2.49905 9.86936 2.62023 9.92C2.80234 9.99658 3.00306 10.0175 3.19705 9.98013C3.39104 9.94275 3.56961 9.84876 3.71023 9.71C3.79856 9.6128 3.86959 9.50119 3.92023 9.38C3.97314 9.2603 4.00047 9.13087 4.00047 9C4.00047 8.86913 3.97314 8.7397 3.92023 8.62C3.86959 8.49882 3.79856 8.3872 3.71023 8.29ZM21.0002 14H7.00023C6.73502 14 6.48066 14.1054 6.29313 14.2929C6.10559 14.4804 6.00023 14.7348 6.00023 15C6.00023 15.2652 6.10559 15.5196 6.29313 15.7071C6.48066 15.8946 6.73502 16 7.00023 16H21.0002C21.2654 16 21.5198 15.8946 21.7073 15.7071C21.8949 15.5196 22.0002 15.2652 22.0002 15C22.0002 14.7348 21.8949 14.4804 21.7073 14.2929C21.5198 14.1054 21.2654 14 21.0002 14Z" fill="#5B5C5D"/>
</g>
</svg>
